<?xml version="1.0" encoding="iso-8859-1"?>
<!-- Generator: Adobe Illustrator 19.0.0, SVG Export Plug-In . SVG Version: 6.00 Build 0)  -->
<svg version="1.1" id="Layer_1" xmlns="http://www.w3.org/2000/svg" xmlns:xlink="http://www.w3.org/1999/xlink" x="0px" y="0px"
	 viewBox="0 0 512 512" style="enable-background:new 0 0 512 512;" xml:space="preserve">
<g transform="translate(1 1)">
	<path style="fill:#D0E8F9;" d="M281.483,502.172C162.31,502.172,65.207,391.828,65.207,255S162.31,7.828,281.483,7.828
		S497.759,118.172,497.759,255S401.538,502.172,281.483,502.172L281.483,502.172z"/>
	<path style="fill:#0096E6;" d="M281.483,511C157.897,511,56.379,396.241,56.379,255S157.014-1,281.483-1
		s225.103,114.759,225.103,256S405.952,511,281.483,511z M281.483,16.655C167.607,16.655,74.034,123.469,74.034,255
		s92.69,238.345,207.448,238.345S488.931,386.531,488.931,255S396.241,16.655,281.483,16.655z"/>
	<path style="fill:#FFFFFF;" d="M65.207,255C65.207,128.766,148.186,24.6,255,9.593c-8.828-0.883-17.655-1.766-26.483-1.766
		C109.345,7.828,12.241,118.172,12.241,255s97.103,247.172,216.276,247.172c8.828,0,17.655-0.883,26.483-1.766
		C148.186,485.4,65.207,381.234,65.207,255L65.207,255z"/>
	<g>
		<path style="fill:#0096E6;" d="M228.517,511C104.931,511,3.414,396.241,3.414,255S104.048-1,228.517-1
			c8.828,0,17.655,0.883,27.366,1.766v17.655C152.6,32.545,74.034,134.945,74.034,255S152.6,477.455,255.883,491.579v17.655
			C247.055,510.117,238.228,511,228.517,511z M191.441,20.186C95.221,40.49,21.069,138.476,21.069,255
			s73.269,214.51,170.372,234.814C111.11,449.207,56.379,358.283,56.379,255S111.11,60.793,191.441,20.186z"/>
		<path style="fill:#0096E6;" d="M158.779,466.862h-52.966c-5.297,0-8.828-3.531-8.828-8.828s3.531-8.828,8.828-8.828h52.966
			c5.297,0,8.828,3.531,8.828,8.828S163.193,466.862,158.779,466.862z M116.407,422.724H63.441c-5.297,0-8.828-3.531-8.828-8.828
			s3.531-8.828,8.828-8.828h52.966c5.297,0,8.828,3.531,8.828,8.828S120.821,422.724,116.407,422.724z M86.393,369.759H33.428
			c-5.297,0-8.828-3.531-8.828-8.828s3.531-8.828,8.828-8.828h52.966c5.297,0,8.828,3.531,8.828,8.828S91.69,369.759,86.393,369.759
			z M72.269,325.621H19.303c-5.297,0-8.828-3.531-8.828-8.828s3.531-8.828,8.828-8.828h52.966c5.297,0,8.828,3.531,8.828,8.828
			S77.566,325.621,72.269,325.621z M65.207,281.483h-51.2c-5.297,0-8.828-3.531-8.828-8.828c0-5.297,3.531-8.828,8.828-8.828H66.09
			c5.297,0,8.828,3.531,8.828,8.828C74.917,277.952,70.503,281.483,65.207,281.483z M66.972,237.345H14.007
			c-5.297,0-8.828-3.531-8.828-8.828s3.531-8.828,8.828-8.828h52.966c5.297,0,8.828,3.531,8.828,8.828
			S71.386,237.345,66.972,237.345z M74.034,193.207H21.069c-5.297,0-8.828-3.531-8.828-8.828s3.531-8.828,8.828-8.828h52.966
			c5.297,0,8.828,3.531,8.828,8.828S79.331,193.207,74.034,193.207z M89.924,149.069H36.959c-5.297,0-8.828-3.531-8.828-8.828
			s3.531-8.828,8.828-8.828h52.966c5.297,0,8.828,3.531,8.828,8.828S95.221,149.069,89.924,149.069z M122.586,96.103H69.621
			c-5.297,0-8.828-3.531-8.828-8.828s3.531-8.828,8.828-8.828h52.966c5.297,0,8.828,3.531,8.828,8.828
			S127.883,96.103,122.586,96.103z M170.255,51.966h-52.083c-5.297,0-8.828-3.531-8.828-8.828s3.531-8.828,8.828-8.828h52.083
			c5.297,0,8.828,3.531,8.828,8.828S174.669,51.966,170.255,51.966z"/>
		<path style="fill:#0096E6;" d="M282.366,453.621c-6.179,0-12.359,0-18.538-0.883c-4.414-0.883-7.945-5.297-7.945-9.71
			c0.883-4.414,5.297-7.945,9.71-7.945c5.297,0.883,10.593,0.883,16.772,0.883c5.297,0,8.828,3.531,8.828,8.828
			S287.662,453.621,282.366,453.621l0.883-8.828L282.366,453.621L282.366,453.621z M333.565,443.91
			c-3.531,0-7.062-1.766-7.945-5.297c-1.766-4.414,0.883-9.71,5.297-11.476c5.297-1.766,9.71-4.414,15.007-7.062
			c4.414-2.648,9.71-0.883,11.476,3.531c2.648,4.414,0.883,9.71-3.531,11.476c-5.297,2.648-11.476,5.297-16.772,7.062
			C336.214,443.91,335.331,443.91,333.565,443.91z M214.393,437.731c-1.766,0-2.648,0-4.414-0.883
			c-5.297-2.648-10.593-6.179-15.89-8.828c-4.414-2.648-5.297-7.945-2.648-12.359c2.648-4.414,7.945-5.297,12.359-2.648
			c4.414,2.648,9.71,6.179,14.124,7.945s6.179,7.945,3.531,11.476C220.572,435.966,217.924,437.731,214.393,437.731z
			 M391.828,405.952c-2.648,0-4.414-0.883-6.179-2.648c-3.531-3.531-3.531-8.828,0-12.359c3.531-3.531,7.945-7.945,11.476-12.359
			c2.648-3.531,8.828-4.414,12.359-0.883c3.531,2.648,4.414,8.828,0.883,12.359c-3.531,4.414-7.945,9.71-12.359,13.241
			C396.241,405.069,394.476,405.952,391.828,405.952z M160.545,393.593c-2.648,0-5.297-0.883-7.062-3.531
			c-3.531-4.414-7.945-9.71-10.593-15.007c-2.648-4.414-1.766-9.71,2.648-12.359c4.414-2.648,9.71-1.766,12.359,2.648
			c3.531,4.414,6.179,8.828,9.71,13.241c3.531,3.531,2.648,9.71-0.883,12.359C164.959,392.71,162.31,393.593,160.545,393.593z
			 M430.669,348.572c-0.883,0-2.648,0-3.531-0.883c-4.414-1.766-6.179-7.062-4.414-11.476c1.766-5.297,4.414-10.593,6.179-15.89
			c1.766-4.414,6.179-7.062,11.476-5.297c4.414,1.766,7.062,6.179,5.297,11.476c-1.766,6.179-4.414,11.476-6.179,16.772
			C437.731,346.807,434.2,348.572,430.669,348.572z M127,332.683c-3.531,0-7.062-2.648-7.945-6.179
			c-1.766-5.297-3.531-11.476-5.297-17.655c-0.883-4.414,1.766-9.71,6.179-10.593c4.414-0.883,9.71,1.766,10.593,6.179
			c1.766,5.297,2.648,10.593,4.414,15.89c1.766,4.414-0.883,9.71-5.297,11.476C128.766,332.683,127.883,332.683,127,332.683z
			 M447.441,280.6L447.441,280.6c-5.297,0-8.828-4.414-8.828-9.71c0-5.297,0.883-10.593,0.883-15.89
			c0-5.297,3.531-8.828,8.828-8.828s8.828,3.531,8.828,8.828l0,0c0,6.179,0,11.476-0.883,17.655
			C456.269,277.069,451.855,280.6,447.441,280.6z M115.524,263.828c-5.297,0-8.828-3.531-8.828-8.828h8.828h-8.828
			c0-6.179,0-12.359,0.883-18.538c0-5.297,4.414-8.828,9.71-7.945c5.297,0,8.828,4.414,7.945,9.71
			c0,5.297-0.883,11.476-0.883,16.772C124.352,260.297,120.821,263.828,115.524,263.828z M441.262,211.745
			c-3.531,0-7.945-2.648-8.828-7.062c-1.766-5.297-2.648-10.593-4.414-15.89c-1.766-4.414,0.883-9.71,5.297-11.476
			c4.414-1.766,9.71,0.883,11.476,5.297c1.766,5.297,3.531,11.476,5.297,17.655c0.883,4.414-1.766,9.71-6.179,10.593
			C443.028,210.862,442.145,211.745,441.262,211.745z M127,194.972c-0.883,0-1.766,0-2.648-0.883
			c-4.414-1.766-7.062-6.179-5.297-11.476c1.766-5.297,4.414-11.476,6.179-16.772c1.766-4.414,7.062-6.179,11.476-4.414
			c4.414,1.766,6.179,7.062,4.414,11.476c-2.648,5.297-4.414,10.593-6.179,15.89C134.062,193.207,130.531,194.972,127,194.972z
			 M413.897,147.303c-2.648,0-5.297-1.766-7.062-3.531c-3.531-4.414-6.179-8.828-9.71-13.241c-3.531-3.531-2.648-9.71,0.883-12.359
			c3.531-3.531,9.71-2.648,12.359,0.883c3.531,4.414,7.945,9.71,10.593,15.007c2.648,4.414,1.766,9.71-2.648,12.359
			C416.545,147.303,414.779,147.303,413.897,147.303z M160.545,134.062c-1.766,0-3.531-0.883-5.297-1.766
			c-3.531-2.648-4.414-8.828-0.883-12.359c3.531-4.414,7.945-9.71,12.359-13.241c3.531-3.531,8.828-3.531,12.359,0
			c3.531,3.531,3.531,8.828,0,12.359c-3.531,3.531-7.945,7.945-11.476,12.359C165.841,133.179,163.193,134.062,160.545,134.062z
			 M364.462,98.752c-1.766,0-3.531-0.883-4.414-1.766c-4.414-2.648-9.71-6.179-14.124-7.945c-4.414-1.766-6.179-7.945-3.531-11.476
			c1.766-4.414,7.062-6.179,11.476-3.531c5.297,2.648,10.593,6.179,15.89,8.828c4.414,2.648,5.297,7.945,2.648,12.359
			C369.759,96.986,367.11,98.752,364.462,98.752z M214.393,89.924c-3.531,0-6.179-1.766-7.945-4.414
			c-2.648-4.414-0.883-9.71,3.531-11.476c5.297-2.648,11.476-5.297,16.772-7.062c4.414-1.766,9.71,0.883,11.476,5.297
			c1.766,4.414-0.883,9.71-5.297,11.476c-5.297,1.766-10.593,4.414-15.007,7.062C217.041,89.924,215.276,89.924,214.393,89.924z
			 M299.138,74.917h-0.883c-5.297-0.883-10.593-0.883-15.89-0.883c-5.297,0-8.828-3.531-8.828-8.828
			c0-5.297,3.531-8.828,8.828-8.828v8.828v-8.828l0,0c6.179,0,12.359,0,18.538,0.883c4.414,0.883,7.945,5.297,7.945,9.71
			C307.083,71.386,303.552,74.917,299.138,74.917z"/>
		<path style="fill:#0096E6;" d="M374.172,320.324c-1.766-1.766-3.531-2.648-5.297-2.648c-1.766,0-4.414,0.883-6.179,2.648
			c-15.89,16.772-37.076,24.717-62.676,24.717c-20.303,0-37.959-6.179-52.083-17.655c-13.241-10.593-22.069-24.717-26.483-42.372
			h70.621c5.297,0,8.828-3.531,8.828-8.828c0-5.297-3.531-8.828-8.828-8.828h-74.152c0-3.531-0.883-7.945-0.883-12.359
			c0-4.414,0-8.828,0.883-13.241h79.448c5.297,0,8.828-3.531,8.828-8.828s-3.531-8.828-8.828-8.828h-75.917
			c4.414-16.772,13.241-30.897,25.6-42.372c13.241-11.476,29.131-17.655,45.903-17.655c17.655,0,33.545,5.297,48.552,15.89
			c6.179,4.414,11.476,8.828,15.89,14.124v18.538c0,5.297,3.531,8.828,8.828,8.828s8.828-3.531,8.828-8.828v-54.731
			c0-5.297-3.531-8.828-8.828-8.828s-8.828,3.531-8.828,8.828v11.476c-18.538-15.007-39.724-22.952-62.676-22.952
			c-23.835,0-44.138,7.945-60.91,22.952c-15.89,14.124-26.483,32.662-30.897,54.731h-17.655c-5.297,0-8.828,3.531-8.828,8.828
			s3.531,8.828,8.828,8.828h15.007c0,4.414-0.883,8.828-0.883,13.241s0,8.828,0.883,12.359h-20.303
			c-5.297,0-8.828,3.531-8.828,8.828c0,5.297,3.531,8.828,8.828,8.828h22.952c5.297,22.952,15.89,41.49,32.662,54.731
			c17.655,15.007,38.841,22.069,64.441,22.069c29.131,0,54.731-9.71,75.034-30.014c2.648-2.648,2.648-4.414,2.648-6.179
			C377.703,324.738,375.055,322.09,374.172,320.324"/>
	</g>
</g>
<g>
</g>
<g>
</g>
<g>
</g>
<g>
</g>
<g>
</g>
<g>
</g>
<g>
</g>
<g>
</g>
<g>
</g>
<g>
</g>
<g>
</g>
<g>
</g>
<g>
</g>
<g>
</g>
<g>
</g>
</svg>
